<svg width="90" height="96" viewBox="0 0 90 96" fill="none" xmlns="http://www.w3.org/2000/svg">
<path d="M77.8053 93.692C80.3966 96.561 84.823 96.786 87.692 94.1947C90.561 91.6034 90.786 87.177 88.1947 84.308L83 89L77.8053 93.692ZM55 58L49.8053 62.692L77.8053 93.692L83 89L88.1947 84.308L60.1947 53.308L55 58Z" fill="#1B3D70"/>
<circle cx="31.5" cy="31.5" r="31.5" fill="#455F86" fill-opacity="0.52"/>
<path d="M63 31.5C63 48.897 48.897 63 31.5 63C14.103 63 0 48.897 0 31.5C0 14.103 14.103 0 31.5 0C48.897 0 63 14.103 63 31.5ZM7.50677 31.5C7.50677 44.7511 18.2489 55.4932 31.5 55.4932C44.7511 55.4932 55.4932 44.7511 55.4932 31.5C55.4932 18.2489 44.7511 7.50677 31.5 7.50677C18.2489 7.50677 7.50677 18.2489 7.50677 31.5Z" fill="#346ABA"/>
<path d="M60 31.5C60 47.2401 47.2401 60 31.5 60C15.7599 60 3 47.2401 3 31.5C3 15.7599 15.7599 3 31.5 3C47.2401 3 60 15.7599 60 31.5ZM4.28515 31.5C4.28515 46.5303 16.4697 58.7149 31.5 58.7149C46.5303 58.7149 58.7149 46.5303 58.7149 31.5C58.7149 16.4697 46.5303 4.28515 31.5 4.28515C16.4697 4.28515 4.28515 16.4697 4.28515 31.5Z" fill="#ACACAC"/>
</svg>