<svg width="901" height="160" viewBox="0 0 901 160" fill="none" xmlns="http://www.w3.org/2000/svg">
<path d="M10.24 128V38.4H49.664C56.4053 38.4 62.592 39.5093 68.224 41.728C73.856 43.9467 78.7627 47.0613 82.944 51.072C87.1253 54.9973 90.3253 59.6907 92.544 65.152C94.848 70.6133 96 76.6293 96 83.2C96 89.6853 94.848 95.7013 92.544 101.248C90.3253 106.709 87.1253 111.445 82.944 115.456C78.7627 119.381 73.856 122.453 68.224 124.672C62.592 126.891 56.4053 128 49.664 128H10.24ZM37.888 110.976L33.152 104.448H49.024C51.84 104.448 54.4 103.936 56.704 102.912C59.008 101.803 61.0133 100.309 62.72 98.432C64.4267 96.5547 65.7493 94.336 66.688 91.776C67.6267 89.1307 68.096 86.272 68.096 83.2C68.096 80.128 67.6267 77.312 66.688 74.752C65.7493 72.1067 64.4267 69.8453 62.72 67.968C61.0133 66.0907 59.008 64.64 56.704 63.616C54.4 62.5067 51.84 61.952 49.024 61.952H32.768L37.888 55.68V110.976ZM108.85 128V105.6H124.594V60.8H108.85V38.4H167.986V60.8H152.242V105.6H167.986V128H108.85ZM219.225 129.28C212.484 129.28 206.51 128.555 201.305 127.104C196.185 125.568 191.662 123.435 187.737 120.704C183.897 117.973 180.441 114.773 177.369 111.104L193.369 93.184C197.636 98.6453 202.073 102.272 206.681 104.064C211.374 105.771 215.769 106.624 219.865 106.624C221.486 106.624 222.937 106.496 224.217 106.24C225.497 105.899 226.478 105.387 227.161 104.704C227.844 104.021 228.185 103.083 228.185 101.888C228.185 100.779 227.801 99.84 227.033 99.072C226.35 98.304 225.412 97.664 224.217 97.152C223.022 96.5547 221.7 96.0853 220.249 95.744C218.884 95.3173 217.518 94.976 216.153 94.72C214.873 94.464 213.721 94.208 212.697 93.952C207.577 92.7573 203.097 91.3067 199.257 89.6C195.417 87.8933 192.217 85.8453 189.657 83.456C187.097 81.0667 185.177 78.336 183.897 75.264C182.702 72.192 182.105 68.736 182.105 64.896C182.105 60.544 183.086 56.576 185.049 52.992C187.097 49.408 189.785 46.336 193.113 43.776C196.526 41.216 200.366 39.2533 204.633 37.888C208.985 36.5227 213.465 35.84 218.073 35.84C224.814 35.84 230.446 36.48 234.969 37.76C239.492 38.9547 243.289 40.704 246.361 43.008C249.433 45.312 252.078 48 254.297 51.072L238.169 66.56C236.292 64.768 234.329 63.3173 232.281 62.208C230.233 61.0133 228.1 60.16 225.881 59.648C223.748 59.0507 221.614 58.752 219.481 58.752C217.518 58.752 215.854 58.9227 214.489 59.264C213.124 59.52 212.057 59.9893 211.289 60.672C210.521 61.2693 210.137 62.1227 210.137 63.232C210.137 64.3413 210.606 65.28 211.545 66.048C212.569 66.7307 213.806 67.328 215.257 67.84C216.793 68.352 218.286 68.7787 219.737 69.12C221.273 69.376 222.553 69.5893 223.577 69.76C228.27 70.6133 232.58 71.808 236.505 73.344C240.43 74.7947 243.844 76.672 246.745 78.976C249.732 81.1947 251.993 84.0107 253.529 87.424C255.15 90.752 255.961 94.72 255.961 99.328C255.961 105.899 254.297 111.403 250.969 115.84C247.726 120.277 243.332 123.648 237.785 125.952C232.238 128.171 226.052 129.28 219.225 129.28ZM313.897 129.28C306.729 129.28 300.116 128.128 294.057 125.824C288.084 123.52 282.878 120.32 278.441 116.224C274.089 112.043 270.718 107.093 268.329 101.376C265.94 95.6587 264.745 89.3867 264.745 82.56C264.745 75.7333 265.94 69.4613 268.329 63.744C270.804 58.0267 274.26 53.12 278.697 49.024C283.134 44.8427 288.382 41.6 294.441 39.296C300.585 36.992 307.326 35.84 314.665 35.84C318.846 35.84 322.942 36.352 326.953 37.376C331.049 38.3147 334.889 39.808 338.473 41.856C342.142 43.8187 345.47 46.336 348.457 49.408L331.945 68.736C330.75 67.2853 329.3 65.9627 327.593 64.768C325.972 63.5733 324.052 62.6347 321.833 61.952C319.7 61.184 317.225 60.8 314.409 60.8C311.508 60.8 308.734 61.312 306.089 62.336C303.529 63.2747 301.268 64.6827 299.305 66.56C297.428 68.4373 295.934 70.7413 294.825 73.472C293.716 76.2027 293.161 79.36 293.161 82.944C293.161 86.1867 293.716 89.1307 294.825 91.776C295.934 94.4213 297.513 96.6827 299.561 98.56C301.609 100.437 304.084 101.888 306.985 102.912C309.886 103.936 313.129 104.448 316.713 104.448C319.273 104.448 321.705 104.064 324.009 103.296C326.313 102.528 328.404 101.547 330.281 100.352C332.158 99.072 333.78 97.664 335.145 96.128L348.329 116.864C346.11 119.253 343.166 121.387 339.497 123.264C335.828 125.141 331.774 126.635 327.337 127.744C322.9 128.768 318.42 129.28 313.897 129.28ZM403.379 129.28C396.296 129.28 389.811 128.128 383.923 125.824C378.035 123.52 372.915 120.277 368.563 116.096C364.211 111.915 360.84 106.965 358.451 101.248C356.147 95.5307 354.995 89.3013 354.995 82.56C354.995 75.7333 356.147 69.504 358.451 63.872C360.84 58.1547 364.211 53.2053 368.563 49.024C372.915 44.8427 378.035 41.6 383.923 39.296C389.811 36.992 396.254 35.84 403.251 35.84C410.334 35.84 416.776 36.992 422.579 39.296C428.467 41.6 433.587 44.8427 437.939 49.024C442.291 53.2053 445.619 58.1547 447.923 63.872C450.312 69.504 451.507 75.6907 451.507 82.432C451.507 89.2587 450.312 95.5307 447.923 101.248C445.619 106.965 442.291 111.915 437.939 116.096C433.587 120.277 428.467 123.52 422.579 125.824C416.776 128.128 410.376 129.28 403.379 129.28ZM403.251 103.68C406.152 103.68 408.798 103.168 411.187 102.144C413.662 101.12 415.795 99.6693 417.587 97.792C419.464 95.8293 420.872 93.568 421.811 91.008C422.835 88.448 423.347 85.632 423.347 82.56C423.347 79.488 422.835 76.672 421.811 74.112C420.872 71.552 419.464 69.3333 417.587 67.456C415.795 65.4933 413.662 64 411.187 62.976C408.798 61.952 406.152 61.44 403.251 61.44C400.35 61.44 397.662 61.952 395.187 62.976C392.798 64 390.664 65.4933 388.787 67.456C386.995 69.3333 385.587 71.552 384.563 74.112C383.624 76.672 383.155 79.488 383.155 82.56C383.155 85.632 383.624 88.448 384.563 91.008C385.587 93.568 386.995 95.8293 388.787 97.792C390.664 99.6693 392.798 101.12 395.187 102.144C397.662 103.168 400.35 103.68 403.251 103.68ZM466.865 128V38.4H508.849C515.078 38.4 520.625 39.6373 525.489 42.112C530.353 44.5867 534.15 47.9573 536.881 52.224C539.612 56.4907 540.977 61.3973 540.977 66.944C540.977 73.1733 539.612 78.6347 536.881 83.328C534.15 88.0213 530.353 91.6907 525.489 94.336C520.625 96.896 515.078 98.176 508.849 98.176H492.721V128H466.865ZM513.841 128L491.057 87.552L519.345 84.352L544.689 128H513.841ZM492.721 78.976H504.497C506.63 78.976 508.38 78.592 509.745 77.824C511.196 76.9707 512.262 75.8187 512.945 74.368C513.713 72.9173 514.097 71.168 514.097 69.12C514.097 67.2427 513.713 65.664 512.945 64.384C512.262 63.0187 511.153 61.9947 509.617 61.312C508.166 60.544 506.289 60.16 503.985 60.16H492.721V78.976ZM577.682 128L541.97 38.4H569.618L583.954 77.568C584.978 80.2133 585.789 82.4747 586.386 84.352C587.069 86.2293 587.666 88.0213 588.178 89.728C588.69 91.3493 589.159 93.0987 589.586 94.976C590.098 96.8533 590.653 99.1573 591.25 101.888H586.77C587.623 98.304 588.349 95.36 588.946 93.056C589.629 90.752 590.354 88.4907 591.122 86.272C591.975 83.968 593.042 81.0667 594.322 77.568L608.658 38.4H635.41L599.442 128H577.682ZM644.365 128V38.4H711.309V60.8H670.861V105.6H713.613V128H644.365ZM657.549 93.184V72.192H706.573V93.184H657.549ZM729.865 128V38.4H771.849C778.078 38.4 783.625 39.6373 788.489 42.112C793.353 44.5867 797.15 47.9573 799.881 52.224C802.612 56.4907 803.977 61.3973 803.977 66.944C803.977 73.1733 802.612 78.6347 799.881 83.328C797.15 88.0213 793.353 91.6907 788.489 94.336C783.625 96.896 778.078 98.176 771.849 98.176H755.721V128H729.865ZM776.841 128L754.057 87.552L782.345 84.352L807.689 128H776.841ZM755.721 78.976H767.497C769.63 78.976 771.38 78.592 772.745 77.824C774.196 76.9707 775.262 75.8187 775.945 74.368C776.713 72.9173 777.097 71.168 777.097 69.12C777.097 67.2427 776.713 65.664 775.945 64.384C775.262 63.0187 774.153 61.9947 772.617 61.312C771.166 60.544 769.289 60.16 766.985 60.16H755.721V78.976Z" fill="#508FEE"/>
<mask id="mask0_613_28" style="mask-type:alpha" maskUnits="userSpaceOnUse" x="10" y="35" width="798" height="95">
<path d="M10.24 128V38.4H49.664C56.4053 38.4 62.592 39.5093 68.224 41.728C73.856 43.9467 78.7627 47.0613 82.944 51.072C87.1253 54.9973 90.3253 59.6907 92.544 65.152C94.848 70.6133 96 76.6293 96 83.2C96 89.6853 94.848 95.7013 92.544 101.248C90.3253 106.709 87.1253 111.445 82.944 115.456C78.7627 119.381 73.856 122.453 68.224 124.672C62.592 126.891 56.4053 128 49.664 128H10.24ZM37.888 110.976L33.152 104.448H49.024C51.84 104.448 54.4 103.936 56.704 102.912C59.008 101.803 61.0133 100.309 62.72 98.432C64.4267 96.5547 65.7493 94.336 66.688 91.776C67.6267 89.1307 68.096 86.272 68.096 83.2C68.096 80.128 67.6267 77.312 66.688 74.752C65.7493 72.1067 64.4267 69.8453 62.72 67.968C61.0133 66.0907 59.008 64.64 56.704 63.616C54.4 62.5067 51.84 61.952 49.024 61.952H32.768L37.888 55.68V110.976ZM108.85 128V105.6H124.594V60.8H108.85V38.4H167.986V60.8H152.242V105.6H167.986V128H108.85ZM219.225 129.28C212.484 129.28 206.51 128.555 201.305 127.104C196.185 125.568 191.662 123.435 187.737 120.704C183.897 117.973 180.441 114.773 177.369 111.104L193.369 93.184C197.636 98.6453 202.073 102.272 206.681 104.064C211.374 105.771 215.769 106.624 219.865 106.624C221.486 106.624 222.937 106.496 224.217 106.24C225.497 105.899 226.478 105.387 227.161 104.704C227.844 104.021 228.185 103.083 228.185 101.888C228.185 100.779 227.801 99.84 227.033 99.072C226.35 98.304 225.412 97.664 224.217 97.152C223.022 96.5547 221.7 96.0853 220.249 95.744C218.884 95.3173 217.518 94.976 216.153 94.72C214.873 94.464 213.721 94.208 212.697 93.952C207.577 92.7573 203.097 91.3067 199.257 89.6C195.417 87.8933 192.217 85.8453 189.657 83.456C187.097 81.0667 185.177 78.336 183.897 75.264C182.702 72.192 182.105 68.736 182.105 64.896C182.105 60.544 183.086 56.576 185.049 52.992C187.097 49.408 189.785 46.336 193.113 43.776C196.526 41.216 200.366 39.2533 204.633 37.888C208.985 36.5227 213.465 35.84 218.073 35.84C224.814 35.84 230.446 36.48 234.969 37.76C239.492 38.9547 243.289 40.704 246.361 43.008C249.433 45.312 252.078 48 254.297 51.072L238.169 66.56C236.292 64.768 234.329 63.3173 232.281 62.208C230.233 61.0133 228.1 60.16 225.881 59.648C223.748 59.0507 221.614 58.752 219.481 58.752C217.518 58.752 215.854 58.9227 214.489 59.264C213.124 59.52 212.057 59.9893 211.289 60.672C210.521 61.2693 210.137 62.1227 210.137 63.232C210.137 64.3413 210.606 65.28 211.545 66.048C212.569 66.7307 213.806 67.328 215.257 67.84C216.793 68.352 218.286 68.7787 219.737 69.12C221.273 69.376 222.553 69.5893 223.577 69.76C228.27 70.6133 232.58 71.808 236.505 73.344C240.43 74.7947 243.844 76.672 246.745 78.976C249.732 81.1947 251.993 84.0107 253.529 87.424C255.15 90.752 255.961 94.72 255.961 99.328C255.961 105.899 254.297 111.403 250.969 115.84C247.726 120.277 243.332 123.648 237.785 125.952C232.238 128.171 226.052 129.28 219.225 129.28ZM313.897 129.28C306.729 129.28 300.116 128.128 294.057 125.824C288.084 123.52 282.878 120.32 278.441 116.224C274.089 112.043 270.718 107.093 268.329 101.376C265.94 95.6587 264.745 89.3867 264.745 82.56C264.745 75.7333 265.94 69.4613 268.329 63.744C270.804 58.0267 274.26 53.12 278.697 49.024C283.134 44.8427 288.382 41.6 294.441 39.296C300.585 36.992 307.326 35.84 314.665 35.84C318.846 35.84 322.942 36.352 326.953 37.376C331.049 38.3147 334.889 39.808 338.473 41.856C342.142 43.8187 345.47 46.336 348.457 49.408L331.945 68.736C330.75 67.2853 329.3 65.9627 327.593 64.768C325.972 63.5733 324.052 62.6347 321.833 61.952C319.7 61.184 317.225 60.8 314.409 60.8C311.508 60.8 308.734 61.312 306.089 62.336C303.529 63.2747 301.268 64.6827 299.305 66.56C297.428 68.4373 295.934 70.7413 294.825 73.472C293.716 76.2027 293.161 79.36 293.161 82.944C293.161 86.1867 293.716 89.1307 294.825 91.776C295.934 94.4213 297.513 96.6827 299.561 98.56C301.609 100.437 304.084 101.888 306.985 102.912C309.886 103.936 313.129 104.448 316.713 104.448C319.273 104.448 321.705 104.064 324.009 103.296C326.313 102.528 328.404 101.547 330.281 100.352C332.158 99.072 333.78 97.664 335.145 96.128L348.329 116.864C346.11 119.253 343.166 121.387 339.497 123.264C335.828 125.141 331.774 126.635 327.337 127.744C322.9 128.768 318.42 129.28 313.897 129.28ZM403.379 129.28C396.296 129.28 389.811 128.128 383.923 125.824C378.035 123.52 372.915 120.277 368.563 116.096C364.211 111.915 360.84 106.965 358.451 101.248C356.147 95.5307 354.995 89.3013 354.995 82.56C354.995 75.7333 356.147 69.504 358.451 63.872C360.84 58.1547 364.211 53.2053 368.563 49.024C372.915 44.8427 378.035 41.6 383.923 39.296C389.811 36.992 396.254 35.84 403.251 35.84C410.334 35.84 416.776 36.992 422.579 39.296C428.467 41.6 433.587 44.8427 437.939 49.024C442.291 53.2053 445.619 58.1547 447.923 63.872C450.312 69.504 451.507 75.6907 451.507 82.432C451.507 89.2587 450.312 95.5307 447.923 101.248C445.619 106.965 442.291 111.915 437.939 116.096C433.587 120.277 428.467 123.52 422.579 125.824C416.776 128.128 410.376 129.28 403.379 129.28ZM403.251 103.68C406.152 103.68 408.798 103.168 411.187 102.144C413.662 101.12 415.795 99.6693 417.587 97.792C419.464 95.8293 420.872 93.568 421.811 91.008C422.835 88.448 423.347 85.632 423.347 82.56C423.347 79.488 422.835 76.672 421.811 74.112C420.872 71.552 419.464 69.3333 417.587 67.456C415.795 65.4933 413.662 64 411.187 62.976C408.798 61.952 406.152 61.44 403.251 61.44C400.35 61.44 397.662 61.952 395.187 62.976C392.798 64 390.664 65.4933 388.787 67.456C386.995 69.3333 385.587 71.552 384.563 74.112C383.624 76.672 383.155 79.488 383.155 82.56C383.155 85.632 383.624 88.448 384.563 91.008C385.587 93.568 386.995 95.8293 388.787 97.792C390.664 99.6693 392.798 101.12 395.187 102.144C397.662 103.168 400.35 103.68 403.251 103.68ZM466.865 128V38.4H508.849C515.078 38.4 520.625 39.6373 525.489 42.112C530.353 44.5867 534.15 47.9573 536.881 52.224C539.612 56.4907 540.977 61.3973 540.977 66.944C540.977 73.1733 539.612 78.6347 536.881 83.328C534.15 88.0213 530.353 91.6907 525.489 94.336C520.625 96.896 515.078 98.176 508.849 98.176H492.721V128H466.865ZM513.841 128L491.057 87.552L519.345 84.352L544.689 128H513.841ZM492.721 78.976H504.497C506.63 78.976 508.38 78.592 509.745 77.824C511.196 76.9707 512.262 75.8187 512.945 74.368C513.713 72.9173 514.097 71.168 514.097 69.12C514.097 67.2427 513.713 65.664 512.945 64.384C512.262 63.0187 511.153 61.9947 509.617 61.312C508.166 60.544 506.289 60.16 503.985 60.16H492.721V78.976ZM577.682 128L541.97 38.4H569.618L583.954 77.568C584.978 80.2133 585.789 82.4747 586.386 84.352C587.069 86.2293 587.666 88.0213 588.178 89.728C588.69 91.3493 589.159 93.0987 589.586 94.976C590.098 96.8533 590.653 99.1573 591.25 101.888H586.77C587.623 98.304 588.349 95.36 588.946 93.056C589.629 90.752 590.354 88.4907 591.122 86.272C591.975 83.968 593.042 81.0667 594.322 77.568L608.658 38.4H635.41L599.442 128H577.682ZM644.365 128V38.4H711.309V60.8H670.861V105.6H713.613V128H644.365ZM657.549 93.184V72.192H706.573V93.184H657.549ZM729.865 128V38.4H771.849C778.078 38.4 783.625 39.6373 788.489 42.112C793.353 44.5867 797.15 47.9573 799.881 52.224C802.612 56.4907 803.977 61.3973 803.977 66.944C803.977 73.1733 802.612 78.6347 799.881 83.328C797.15 88.0213 793.353 91.6907 788.489 94.336C783.625 96.896 778.078 98.176 771.849 98.176H755.721V128H729.865ZM776.841 128L754.057 87.552L782.345 84.352L807.689 128H776.841ZM755.721 78.976H767.497C769.63 78.976 771.38 78.592 772.745 77.824C774.196 76.9707 775.262 75.8187 775.945 74.368C776.713 72.9173 777.097 71.168 777.097 69.12C777.097 67.2427 776.713 65.664 775.945 64.384C775.262 63.0187 774.153 61.9947 772.617 61.312C771.166 60.544 769.289 60.16 766.985 60.16H755.721V78.976Z" fill="#508FEE"/>
</mask>
<g mask="url(#mask0_613_28)">
<line x1="47.2164" y1="95.4508" x2="-2.78364" y2="119.451" stroke="white"/>
<line x1="8.05939" y1="49.5035" x2="543.059" y2="113.504" stroke="white"/>
<line x1="542.873" y1="112.516" x2="816.873" y2="40.5164" stroke="white"/>
</g>
<path d="M888.805 126.692C891.397 129.561 895.823 129.786 898.692 127.195C901.561 124.603 901.786 120.177 899.195 117.308L894 122L888.805 126.692ZM866 91L860.805 95.692L888.805 126.692L894 122L899.195 117.308L871.195 86.308L866 91Z" fill="#1B3D70"/>
<circle cx="842.5" cy="64.5" r="31.5" fill="#455F86" fill-opacity="0.52"/>
<path d="M874 64.5C874 81.897 859.897 96 842.5 96C825.103 96 811 81.897 811 64.5C811 47.103 825.103 33 842.5 33C859.897 33 874 47.103 874 64.5ZM818.507 64.5C818.507 77.7511 829.249 88.4932 842.5 88.4932C855.751 88.4932 866.493 77.7511 866.493 64.5C866.493 51.2489 855.751 40.5068 842.5 40.5068C829.249 40.5068 818.507 51.2489 818.507 64.5Z" fill="#346ABA"/>
<path d="M871 64.5C871 80.2401 858.24 93 842.5 93C826.76 93 814 80.2401 814 64.5C814 48.7599 826.76 36 842.5 36C858.24 36 871 48.7599 871 64.5ZM815.285 64.5C815.285 79.5303 827.47 91.7149 842.5 91.7149C857.53 91.7149 869.715 79.5303 869.715 64.5C869.715 49.4697 857.53 37.2851 842.5 37.2851C827.47 37.2851 815.285 49.4697 815.285 64.5Z" fill="#ACACAC"/>
</svg>
